<svg xmlns="http://www.w3.org/2000/svg" width="900" height="470" viewBox="0 0 900 470">
<rect width="100%" height="100%" fill="#ffffff"/><text x="28" y="46" font-size="25" font-weight="700" fill="#10243e">Monthly net revenue</text>
<text x="28" y="72" font-size="13" fill="#66788a">24-month trend · synthetic portfolio data</text>
<line x1="70" y1="370" x2="830" y2="370" stroke="#d7e0ea"/><polyline points="70.0,361.7 103.0,352.2 136.1,343.9 169.1,350.7 202.2,349.0 235.2,364.7 268.3,338.2 301.3,342.1 334.3,350.8 367.4,340.0 400.4,115.8 433.5,100.0 466.5,331.1 499.6,370.0 532.6,362.3 565.7,343.7 598.7,345.6 631.7,365.1 664.8,369.0 697.8,355.3 730.9,351.7 763.9,356.1 797.0,116.6 830.0,117.0" fill="none" stroke="#1f6feb" stroke-width="4" stroke-linejoin="round"/><text x="70.0" y="405" text-anchor="middle" font-size="11" fill="#66788a">2024-01</text><text x="169.1" y="405" text-anchor="middle" font-size="11" fill="#66788a">2024-04</text><text x="268.3" y="405" text-anchor="middle" font-size="11" fill="#66788a">2024-07</text><text x="367.4" y="405" text-anchor="middle" font-size="11" fill="#66788a">2024-10</text><text x="466.5" y="405" text-anchor="middle" font-size="11" fill="#66788a">2025-01</text><text x="565.7" y="405" text-anchor="middle" font-size="11" fill="#66788a">2025-04</text><text x="664.8" y="405" text-anchor="middle" font-size="11" fill="#66788a">2025-07</text><text x="763.9" y="405" text-anchor="middle" font-size="11" fill="#66788a">2025-10</text><text x="830.0" y="405" text-anchor="middle" font-size="11" fill="#66788a">2025-12</text></svg>